Raleway-ExtraLight-OTF.ufo
<glyph name="dollar" format="1">
  <advance width="615"/>
  <unicode hex="0024"/>
  <outline>
    <contour>
      <point x="534" y="631" type="line"/>
      <point x="478" y="688"/>
      <point x="411" y="714"/>
      <point x="323" y="715" type="curve"/>
      <point x="323" y="815" type="line"/>
      <point x="298" y="815" type="line"/>
      <point x="298" y="714" type="line"/>
      <point x="159" y="708"/>
      <point x="69" y="640"/>
      <point x="69" y="520" type="curve" smooth="yes"/>
      <point x="69" y="405"/>
      <point x="151" y="372"/>
      <point x="299" y="342" type="curve"/>
      <point x="299" y="25" type="line"/>
      <point x="202" y="30"/>
      <point x="126" y="65"/>
      <point x="65" y="128" type="curve"/>
      <point x="44" y="103" type="line"/>
      <point x="115" y="35"/>
      <point x="196" y="0"/>
      <point x="298" y="-4" type="curve"/>
      <point x="298" y="-96" type="line"/>
      <point x="323" y="-96" type="line"/>
      <point x="323" y="-5" type="line"/>
      <point x="476" y="-5"/>
      <point x="574" y="58"/>
      <point x="574" y="177" type="curve" smooth="yes"/>
      <point x="574" y="302"/>
      <point x="477" y="338"/>
      <point x="322" y="370" type="curve"/>
      <point x="322" y="683" type="line"/>
      <point x="404" y="682"/>
      <point x="463" y="661"/>
      <point x="515" y="605" type="curve"/>
    </contour>
    <contour>
      <point x="539" y="173" type="curve" smooth="yes"/>
      <point x="539" y="74"/>
      <point x="457" y="25"/>
      <point x="322" y="25" type="curve"/>
      <point x="322" y="337" type="line"/>
      <point x="470" y="306"/>
      <point x="539" y="271"/>
    </contour>
    <contour>
      <point x="104" y="525" type="curve" smooth="yes"/>
      <point x="104" y="616"/>
      <point x="162" y="677"/>
      <point x="299" y="682" type="curve"/>
      <point x="299" y="375" type="line"/>
      <point x="162" y="404"/>
      <point x="104" y="432"/>
    </contour>
  </outline>
</glyph>
<glyph name="parenleft" format="1">
  <advance width="244"/>
  <unicode hex="0028"/>
  <outline>
    <contour>
      <point x="48" y="345" type="curve" smooth="yes"/>
      <point x="48" y="223"/>
      <point x="98" y="97"/>
      <point x="183" y="-29" type="curve"/>
      <point x="209" y="-13" type="line"/>
      <point x="128" y="106"/>
      <point x="80" y="240"/>
      <point x="80" y="342" type="curve" smooth="yes"/>
      <point x="80" y="465"/>
      <point x="149" y="624"/>
      <point x="210" y="714" type="curve"/>
      <point x="183" y="730" type="line"/>
      <point x="109" y="605"/>
      <point x="48" y="481"/>
    </contour>
  </outline>
</glyph>
<glyph name="two" format="1">
  <advance width="496"/>
  <unicode hex="0032"/>
  <outline>
    <contour>
      <point x="447" y="0" type="line"/>
      <point x="447" y="32" type="line"/>
      <point x="83" y="32" type="line"/>
      <point x="85" y="76"/>
      <point x="115" y="189"/>
      <point x="243" y="241" type="curve" smooth="yes"/>
      <point x="315" y="270"/>
      <point x="436" y="315"/>
      <point x="436" y="430" type="curve" smooth="yes"/>
      <point x="436" y="506"/>
      <point x="372" y="581"/>
      <point x="251" y="581" type="curve" smooth="yes"/>
      <point x="133" y="581"/>
      <point x="60" y="492"/>
      <point x="56" y="486" type="curve"/>
      <point x="80" y="463" type="line"/>
      <point x="93" y="480"/>
      <point x="152" y="549"/>
      <point x="248" y="549" type="curve" smooth="yes"/>
      <point x="351" y="549"/>
      <point x="401" y="486"/>
      <point x="401" y="428" type="curve" smooth="yes"/>
      <point x="401" y="330"/>
      <point x="291" y="296"/>
      <point x="216" y="263" type="curve" smooth="yes"/>
      <point x="60" y="194"/>
      <point x="46" y="61"/>
      <point x="46" y="0" type="curve"/>
    </contour>
  </outline>
</glyph>
<glyph name="P" format="1">
  <advance width="620"/>
  <unicode hex="0050"/>
  <outline>
    <contour>
      <point x="131" y="0" type="line"/>
      <point x="131" y="274" type="line"/>
      <point x="393" y="274" type="line" smooth="yes"/>
      <point x="510" y="274"/>
      <point x="590" y="380"/>
      <point x="590" y="493" type="curve" smooth="yes"/>
      <point x="590" y="600"/>
      <point x="504" y="710"/>
      <point x="387" y="710" type="curve" smooth="yes"/>
      <point x="96" y="710" type="line"/>
      <point x="96" y="0" type="line"/>
    </contour>
    <contour>
      <point x="131" y="678" type="line"/>
      <point x="386" y="678" type="line" smooth="yes"/>
      <point x="479" y="678"/>
      <point x="555" y="590"/>
      <point x="555" y="493" type="curve" smooth="yes"/>
      <point x="555" y="400"/>
      <point x="493" y="306"/>
      <point x="392" y="306" type="curve" smooth="yes"/>
      <point x="131" y="306" type="line"/>
    </contour>
  </outline>
</glyph>
<glyph name="V" format="1">
  <advance width="678"/>
  <unicode hex="0056"/>
  <outline>
    <contour>
      <point x="17" y="710" type="line"/>
      <point x="322" y="0" type="line"/>
      <point x="356" y="0" type="line"/>
      <point x="661" y="710" type="line"/>
      <point x="624" y="710" type="line"/>
      <point x="339" y="43" type="line"/>
      <point x="53" y="710" type="line"/>
    </contour>
  </outline>
</glyph>
<glyph name="brokenbar" format="1">
  <advance width="220"/>
  <unicode hex="00A6"/>
  <outline>
    <contour>
      <point x="94" y="283" type="line"/>
      <point x="94" y="-130" type="line"/>
      <point x="126" y="-130" type="line"/>
      <point x="126" y="283" type="line"/>
    </contour>
    <contour>
      <point x="94" y="775" type="line"/>
      <point x="94" y="362" type="line"/>
      <point x="126" y="362" type="line"/>
      <point x="126" y="775" type="line"/>
    </contour>
  </outline>
</glyph>
<glyph name="uni00AD" format="1">
  <advance width="549"/>
  <unicode hex="00AD"/>
  <outline>
    <contour>
      <point x="481" y="255" type="line"/>
      <point x="481" y="288" type="line"/>
      <point x="68" y="288" type="line"/>
      <point x="68" y="255" type="line"/>
    </contour>
  </outline>
</glyph>
<glyph name="cedilla" format="1">
  <advance width="261"/>
  <unicode hex="00B8"/>
  <outline>
    <contour>
      <point x="111" y="0" type="move" name="_bottom"/>
    </contour>
    <contour>
      <point x="23" y="-147" type="line"/>
      <point x="48" y="-157"/>
      <point x="82" y="-166"/>
      <point x="118" y="-166" type="curve" smooth="yes"/>
      <point x="173" y="-166"/>
      <point x="205" y="-147"/>
      <point x="205" y="-105" type="curve" smooth="yes"/>
      <point x="205" y="-69"/>
      <point x="180" y="-49"/>
      <point x="135" y="-49" type="curve" smooth="yes"/>
      <point x="125" y="-49"/>
      <point x="107" y="-50"/>
      <point x="94" y="-55" type="curve"/>
      <point x="128" y="1" type="line"/>
      <point x="105" y="13" type="line"/>
      <point x="50" y="-84" type="line"/>
      <point x="68" y="-78"/>
      <point x="103" y="-69"/>
      <point x="131" y="-69" type="curve" smooth="yes"/>
      <point x="160" y="-69"/>
      <point x="180" y="-78"/>
      <point x="180" y="-106" type="curve" smooth="yes"/>
      <point x="180" y="-133"/>
      <point x="160" y="-143"/>
      <point x="122" y="-143" type="curve" smooth="yes"/>
      <point x="88" y="-143"/>
      <point x="54" y="-134"/>
      <point x="35" y="-125" type="curve"/>
    </contour>
  </outline>
</glyph>
<glyph name="AE" format="1">
  <advance width="962"/>
  <unicode hex="00C6"/>
  <outline>
    <contour>
      <point x="478" y="707" type="move" name="top"/>
    </contour>
    <contour>
      <point x="-28" y="0" type="line"/>
      <point x="12" y="0" type="line"/>
      <point x="171" y="245" type="line"/>
      <point x="446" y="245" type="line"/>
      <point x="446" y="0" type="line"/>
      <point x="913" y="0" type="line"/>
      <point x="913" y="32" type="line"/>
      <point x="480" y="32" type="line"/>
      <point x="480" y="347" type="line"/>
      <point x="850" y="347" type="line"/>
      <point x="850" y="379" type="line"/>
      <point x="480" y="379" type="line"/>
      <point x="480" y="678" type="line"/>
      <point x="904" y="678" type="line"/>
      <point x="904" y="710" type="line"/>
      <point x="437" y="710" type="line"/>
    </contour>
    <contour>
      <point x="189" y="277" type="line"/>
      <point x="444" y="663" type="line"/>
      <point x="444" y="277" type="line"/>
    </contour>
  </outline>
</glyph>
<glyph name="Iacute" format="1">
  <advance width="227"/>
  <unicode hex="00CD"/>
  <outline>
    <contour>
      <point x="131" y="0" type="line"/>
      <point x="131" y="710" type="line"/>
      <point x="96" y="710" type="line"/>
      <point x="96" y="0" type="line"/>
    </contour>
    <contour>
      <point x="188" y="918" type="line"/>
      <point x="143" y="918" type="line"/>
      <point x="81" y="839" type="line"/>
      <point x="105" y="826" type="line"/>
    </contour>
  </outline>
</glyph>
<glyph name="Ugrave" format="1">
  <advance width="756"/>
  <unicode hex="00D9"/>
  <outline>
    <contour>
      <point x="378" y="28" type="curve" smooth="yes"/>
      <point x="178" y="28"/>
      <point x="120" y="190"/>
      <point x="120" y="354" type="curve" smooth="yes"/>
      <point x="120" y="710" type="line"/>
      <point x="85" y="710" type="line"/>
      <point x="85" y="354" type="line" smooth="yes"/>
      <point x="85" y="175"/>
      <point x="154" y="-5"/>
      <point x="379" y="-5" type="curve" smooth="yes"/>
      <point x="597" y="-5"/>
      <point x="671" y="165"/>
      <point x="671" y="354" type="curve" smooth="yes"/>
      <point x="671" y="710" type="line"/>
      <point x="637" y="710" type="line"/>
      <point x="637" y="354" type="line" smooth="yes"/>
      <point x="637" y="194"/>
      <point x="582" y="28"/>
    </contour>
    <contour>
      <point x="387" y="826" type="line"/>
      <point x="411" y="839" type="line"/>
      <point x="348" y="918" type="line"/>
      <point x="304" y="918" type="line"/>
    </contour>
  </outline>
</glyph>
<glyph name="aogonek" format="1">
  <advance width="530"/>
  <unicode hex="0105"/>
  <outline>
    <contour>
      <point x="424" y="-164" type="curve"/>
      <point x="438" y="-141" type="line"/>
      <point x="407" y="-135"/>
      <point x="391" y="-119"/>
      <point x="391" y="-94" type="curve" smooth="yes"/>
      <point x="391" y="-65"/>
      <point x="413" y="-40"/>
      <point x="473" y="0" type="curve"/>
      <point x="473" y="32" type="line"/>
      <point x="461" y="32"/>
      <point x="455" y="39"/>
      <point x="455" y="54" type="curve" smooth="yes"/>
      <point x="455" y="326" type="line" smooth="yes"/>
      <point x="455" y="450"/>
      <point x="379" y="528"/>
      <point x="259" y="528" type="curve" smooth="yes"/>
      <point x="202" y="528"/>
      <point x="140" y="505"/>
      <point x="74" y="460" type="curve"/>
      <point x="90" y="435" type="line"/>
      <point x="147" y="476"/>
      <point x="206" y="499"/>
      <point x="257" y="499" type="curve" smooth="yes"/>
      <point x="356" y="499"/>
      <point x="421" y="431"/>
      <point x="421" y="328" type="curve" smooth="yes"/>
      <point x="421" y="272" type="line"/>
      <point x="373" y="290"/>
      <point x="310" y="300"/>
      <point x="252" y="300" type="curve" smooth="yes"/>
      <point x="126" y="300"/>
      <point x="37" y="238"/>
      <point x="37" y="150" type="curve" smooth="yes"/>
      <point x="37" y="60"/>
      <point x="112" y="-10"/>
      <point x="207" y="-10" type="curve" smooth="yes"/>
      <point x="295" y="-10"/>
      <point x="375" y="26"/>
      <point x="423" y="88" type="curve"/>
      <point x="423" y="42" type="line" smooth="yes"/>
      <point x="423" y="26"/>
      <point x="431" y="12"/>
      <point x="443" y="4" type="curve"/>
      <point x="388" y="-35"/>
      <point x="365" y="-66"/>
      <point x="365" y="-99" type="curve" smooth="yes"/>
      <point x="365" y="-131"/>
      <point x="386" y="-155"/>
    </contour>
    <contour>
      <point x="211" y="19" type="curve" smooth="yes"/>
      <point x="132" y="19"/>
      <point x="70" y="77"/>
      <point x="70" y="151" type="curve" smooth="yes"/>
      <point x="70" y="225"/>
      <point x="145" y="274"/>
      <point x="255" y="274" type="curve" smooth="yes"/>
      <point x="314" y="274"/>
      <point x="369" y="264"/>
      <point x="421" y="244" type="curve"/>
      <point x="421" y="146" type="line" smooth="yes"/>
      <point x="421" y="77"/>
      <point x="309" y="19"/>
    </contour>
  </outline>
</glyph>
<glyph name="eogonek" format="1">
  <advance width="579"/>
  <unicode hex="0119"/>
  <outline>
    <contour>
      <point x="274" y="-172" type="curve"/>
      <point x="288" y="-149" type="line"/>
      <point x="257" y="-143"/>
      <point x="241" y="-127"/>
      <point x="241" y="-102" type="curve" smooth="yes"/>
      <point x="241" y="-73"/>
      <point x="262" y="-48"/>
      <point x="322" y="-8" type="curve"/>
      <point x="405" y="0"/>
      <point x="481" y="49"/>
      <point x="508" y="116" type="curve"/>
      <point x="477" y="124" type="line"/>
      <point x="449" y="62"/>
      <point x="375" y="19"/>
      <point x="299" y="19" type="curve" smooth="yes"/>
      <point x="184" y="19"/>
      <point x="89" y="117"/>
      <point x="79" y="245" type="curve"/>
      <point x="545" y="245" type="line"/>
      <point x="546" y="246"/>
      <point x="546" y="257"/>
      <point x="546" y="260" type="curve" smooth="yes"/>
      <point x="545" y="407"/>
      <point x="436" y="528"/>
      <point x="293" y="528" type="curve" smooth="yes"/>
      <point x="153" y="528"/>
      <point x="44" y="409"/>
      <point x="44" y="263" type="curve" smooth="yes"/>
      <point x="44" y="118"/>
      <point x="149" y="-3"/>
      <point x="284" y="-10" type="curve"/>
      <point x="236" y="-46"/>
      <point x="215" y="-75"/>
      <point x="215" y="-107" type="curve" smooth="yes"/>
      <point x="215" y="-139"/>
      <point x="236" y="-163"/>
    </contour>
    <contour>
      <point x="79" y="274" type="line"/>
      <point x="86" y="403"/>
      <point x="177" y="498"/>
      <point x="294" y="498" type="curve" smooth="yes"/>
      <point x="411" y="498"/>
      <point x="503" y="405"/>
      <point x="512" y="274" type="curve"/>
    </contour>
  </outline>
</glyph>
<glyph name="Imacron" format="1">
  <advance width="227"/>
  <unicode hex="012A"/>
  <outline>
    <contour>
      <point x="131" y="0" type="line"/>
      <point x="131" y="710" type="line"/>
      <point x="96" y="710" type="line"/>
      <point x="96" y="0" type="line"/>
    </contour>
    <contour>
      <point x="255" y="867" type="line"/>
      <point x="255" y="895" type="line"/>
      <point x="-28" y="895" type="line"/>
      <point x="-28" y="867" type="line"/>
    </contour>
  </outline>
</glyph>
<glyph name="Lcommaaccent" format="1">
  <advance width="580"/>
  <unicode hex="013B"/>
  <outline>
    <contour>
      <point x="330" y="-176" type="line"/>
      <point x="347" y="-114" type="line"/>
      <point x="347" y="-50" type="line"/>
      <point x="310" y="-50" type="line"/>
      <point x="310" y="-114" type="line"/>
      <point x="322" y="-114" type="line"/>
      <point x="310" y="-176" type="line"/>
    </contour>
    <contour>
      <point x="566" y="0" type="line"/>
      <point x="566" y="32" type="line"/>
      <point x="131" y="32" type="line"/>
      <point x="131" y="710" type="line"/>
      <point x="96" y="710" type="line"/>
      <point x="96" y="0" type="line"/>
    </contour>
  </outline>
</glyph>
<glyph name="OE" format="1">
  <advance width="1191"/>
  <unicode hex="0152"/>
  <outline>
    <contour>
      <point x="709" y="32" type="line"/>
      <point x="709" y="347" type="line"/>
      <point x="1079" y="347" type="line"/>
      <point x="1079" y="379" type="line"/>
      <point x="709" y="379" type="line"/>
      <point x="709" y="678" type="line"/>
      <point x="1133" y="678" type="line"/>
      <point x="1133" y="710" type="line"/>
      <point x="675" y="710" type="line"/>
      <point x="675" y="491" type="line"/>
      <point x="631" y="614"/>
      <point x="521" y="715"/>
      <point x="378" y="715" type="curve" smooth="yes"/>
      <point x="190" y="715"/>
      <point x="46" y="544"/>
      <point x="46" y="355" type="curve" smooth="yes"/>
      <point x="46" y="173"/>
      <point x="182" y="-5"/>
      <point x="380" y="-5" type="curve" smooth="yes"/>
      <point x="516" y="-5"/>
      <point x="629" y="93"/>
      <point x="675" y="218" type="curve"/>
      <point x="675" y="0" type="line"/>
      <point x="1142" y="0" type="line"/>
      <point x="1142" y="32" type="line"/>
    </contour>
    <contour>
      <point x="378" y="28" type="curve" smooth="yes"/>
      <point x="205" y="28"/>
      <point x="81" y="185"/>
      <point x="81" y="355" type="curve" smooth="yes"/>
      <point x="81" y="517"/>
      <point x="200" y="682"/>
      <point x="378" y="682" type="curve" smooth="yes"/>
      <point x="547" y="682"/>
      <point x="674" y="525"/>
      <point x="674" y="356" type="curve" smooth="yes"/>
      <point x="674" y="193"/>
      <point x="556" y="28"/>
    </contour>
  </outline>
</glyph>
<glyph name="uni015F" format="1">
  <advance width="477"/>
  <unicode hex="015F"/>
  <outline>
    <contour>
      <point x="151" y="-147" type="line"/>
      <point x="176" y="-157"/>
      <point x="210" y="-166"/>
      <point x="246" y="-166" type="curve" smooth="yes"/>
      <point x="301" y="-166"/>
      <point x="333" y="-147"/>
      <point x="333" y="-105" type="curve" smooth="yes"/>
      <point x="333" y="-69"/>
      <point x="308" y="-49"/>
      <point x="263" y="-49" type="curve" smooth="yes"/>
      <point x="253" y="-49"/>
      <point x="235" y="-50"/>
      <point x="222" y="-55" type="curve"/>
      <point x="249" y="-10" type="line"/>
      <point x="361" y="-6"/>
      <point x="435" y="51"/>
      <point x="435" y="141" type="curve" smooth="yes"/>
      <point x="435" y="231"/>
      <point x="361" y="252"/>
      <point x="234" y="282" type="curve" smooth="yes"/>
      <point x="134" y="305"/>
      <point x="92" y="318"/>
      <point x="92" y="383" type="curve" smooth="yes"/>
      <point x="92" y="464"/>
      <point x="160" y="499"/>
      <point x="242" y="499" type="curve" smooth="yes"/>
      <point x="306" y="499"/>
      <point x="368" y="477"/>
      <point x="397" y="437" type="curve"/>
      <point x="420" y="454" type="line"/>
      <point x="392" y="497"/>
      <point x="328" y="528"/>
      <point x="245" y="528" type="curve" smooth="yes"/>
      <point x="145" y="528"/>
      <point x="59" y="481"/>
      <point x="59" y="378" type="curve" smooth="yes"/>
      <point x="59" y="295"/>
      <point x="113" y="279"/>
      <point x="227" y="252" type="curve" smooth="yes"/>
      <point x="340" y="225"/>
      <point x="401" y="207"/>
      <point x="401" y="137" type="curve" smooth="yes"/>
      <point x="401" y="63"/>
      <point x="335" y="19"/>
      <point x="238" y="19" type="curve" smooth="yes"/>
      <point x="166" y="19"/>
      <point x="109" y="44"/>
      <point x="54" y="95" type="curve"/>
      <point x="35" y="72" type="line"/>
      <point x="84" y="21"/>
      <point x="148" y="-5"/>
      <point x="220" y="-9" type="curve"/>
      <point x="178" y="-84" type="line"/>
      <point x="196" y="-78"/>
      <point x="231" y="-69"/>
      <point x="259" y="-69" type="curve" smooth="yes"/>
      <point x="288" y="-69"/>
      <point x="308" y="-78"/>
      <point x="308" y="-106" type="curve" smooth="yes"/>
      <point x="308" y="-133"/>
      <point x="288" y="-143"/>
      <point x="250" y="-143" type="curve" smooth="yes"/>
      <point x="216" y="-143"/>
      <point x="182" y="-134"/>
      <point x="163" y="-125" type="curve"/>
    </contour>
  </outline>
</glyph>
<glyph name="Uhungarumlaut" format="1">
  <advance width="756"/>
  <unicode hex="0170"/>
  <outline>
    <contour>
      <point x="378" y="28" type="curve" smooth="yes"/>
      <point x="178" y="28"/>
      <point x="120" y="190"/>
      <point x="120" y="354" type="curve" smooth="yes"/>
      <point x="120" y="710" type="line"/>
      <point x="85" y="710" type="line"/>
      <point x="85" y="354" type="line" smooth="yes"/>
      <point x="85" y="175"/>
      <point x="154" y="-5"/>
      <point x="379" y="-5" type="curve" smooth="yes"/>
      <point x="597" y="-5"/>
      <point x="671" y="165"/>
      <point x="671" y="354" type="curve" smooth="yes"/>
      <point x="671" y="710" type="line"/>
      <point x="637" y="710" type="line"/>
      <point x="637" y="354" type="line" smooth="yes"/>
      <point x="637" y="194"/>
      <point x="582" y="28"/>
    </contour>
    <contour>
      <point x="398" y="918" type="line"/>
      <point x="355" y="918" type="line"/>
      <point x="293" y="839" type="line"/>
      <point x="315" y="826" type="line"/>
    </contour>
    <contour>
      <point x="505" y="918" type="line"/>
      <point x="462" y="918" type="line"/>
      <point x="400" y="839" type="line"/>
      <point x="423" y="826" type="line"/>
    </contour>
  </outline>
</glyph>
<glyph name="uni01C8" format="1">
  <advance width="784"/>
  <unicode hex="01C8"/>
  <outline>
    <contour>
      <point x="564" y="-173" type="curve" smooth="yes"/>
      <point x="631" y="-173"/>
      <point x="703" y="-114"/>
      <point x="703" y="-32" type="curve" smooth="yes"/>
      <point x="703" y="520" type="line"/>
      <point x="669" y="520" type="line"/>
      <point x="669" y="-33" type="line" smooth="yes"/>
      <point x="669" y="-94"/>
      <point x="614" y="-141"/>
      <point x="561" y="-141" type="curve" smooth="yes"/>
      <point x="534" y="-141"/>
      <point x="504" y="-136"/>
      <point x="481" y="-116" type="curve"/>
      <point x="460" y="-138" type="line"/>
      <point x="487" y="-164"/>
      <point x="524" y="-173"/>
    </contour>
    <contour>
      <point x="703" y="646" type="line"/>
      <point x="703" y="730" type="line"/>
      <point x="669" y="730" type="line"/>
      <point x="669" y="646" type="line"/>
    </contour>
    <contour>
      <point x="566" y="0" type="line"/>
      <point x="566" y="32" type="line"/>
      <point x="131" y="32" type="line"/>
      <point x="131" y="710" type="line"/>
      <point x="96" y="710" type="line"/>
      <point x="96" y="0" type="line"/>
    </contour>
  </outline>
</glyph>
<glyph name="Aringacute" format="1">
  <advance width="675"/>
  <unicode hex="01FA"/>
  <outline>
    <contour>
      <point x="276" y="751" type="curve" smooth="yes"/>
      <point x="276" y="724"/>
      <point x="291" y="702"/>
      <point x="315" y="694" type="curve"/>
      <point x="16" y="0" type="line"/>
      <point x="54" y="0" type="line"/>
      <point x="159" y="245" type="line"/>
      <point x="515" y="245" type="line"/>
      <point x="620" y="0" type="line"/>
      <point x="657" y="0" type="line"/>
      <point x="359" y="694" type="line"/>
      <point x="383" y="702"/>
      <point x="399" y="723"/>
      <point x="399" y="751" type="curve" smooth="yes"/>
      <point x="399" y="785"/>
      <point x="373" y="810"/>
      <point x="337" y="810" type="curve" smooth="yes"/>
      <point x="302" y="810"/>
      <point x="276" y="785"/>
    </contour>
    <contour>
      <point x="169" y="275" type="line"/>
      <point x="337" y="666" type="line"/>
      <point x="504" y="275" type="line"/>
    </contour>
    <contour>
      <point x="337" y="791" type="curve" smooth="yes"/>
      <point x="360" y="791"/>
      <point x="378" y="775"/>
      <point x="378" y="751" type="curve" smooth="yes"/>
      <point x="378" y="727"/>
      <point x="358" y="710"/>
      <point x="337" y="710" type="curve" smooth="yes"/>
      <point x="314" y="710"/>
      <point x="297" y="728"/>
      <point x="297" y="751" type="curve" smooth="yes"/>
      <point x="297" y="775"/>
      <point x="315" y="791"/>
    </contour>
    <contour>
      <point x="413" y="918" type="line"/>
      <point x="368" y="918" type="line"/>
      <point x="306" y="840" type="line"/>
      <point x="330" y="827" type="line"/>
    </contour>
  </outline>
</glyph>
<glyph name="Idblgrave" format="1">
  <advance width="227"/>
  <unicode hex="0208"/>
  <outline>
    <contour>
      <point x="131" y="0" type="line"/>
      <point x="131" y="710" type="line"/>
      <point x="96" y="710" type="line"/>
      <point x="96" y="0" type="line"/>
    </contour>
    <contour>
      <point x="170" y="826" type="line"/>
      <point x="192" y="839" type="line"/>
      <point x="130" y="918" type="line"/>
      <point x="88" y="918" type="line"/>
    </contour>
    <contour>
      <point x="63" y="826" type="line"/>
      <point x="85" y="839" type="line"/>
      <point x="23" y="918" type="line"/>
      <point x="-20" y="918" type="line"/>
    </contour>
  </outline>
</glyph>
<glyph name="uni0409" format="1">
  <advance width="991"/>
  <unicode hex="0409"/>
  <outline>
    <contour>
      <point x="9" y="-1" type="line"/>
      <point x="127" y="-1"/>
      <point x="191" y="146"/>
      <point x="223" y="539" type="curve" smooth="yes"/>
      <point x="235" y="678" type="line"/>
      <point x="506" y="678" type="line"/>
      <point x="506" y="0" type="line"/>
      <point x="746" y="0" type="line" smooth="yes"/>
      <point x="886" y="0"/>
      <point x="961" y="89"/>
      <point x="961" y="201" type="curve" smooth="yes"/>
      <point x="961" y="316"/>
      <point x="888" y="394"/>
      <point x="744" y="394" type="curve" smooth="yes"/>
      <point x="540" y="394" type="line"/>
      <point x="540" y="710" type="line"/>
      <point x="203" y="710" type="line"/>
      <point x="190" y="548" type="line" smooth="yes"/>
      <point x="153" y="110"/>
      <point x="79" y="33"/>
      <point x="5" y="32" type="curve"/>
    </contour>
    <contour>
      <point x="540" y="32" type="line"/>
      <point x="540" y="362" type="line"/>
      <point x="744" y="362" type="line" smooth="yes"/>
      <point x="884" y="362"/>
      <point x="927" y="287"/>
      <point x="927" y="201" type="curve" smooth="yes"/>
      <point x="927" y="113"/>
      <point x="875" y="32"/>
      <point x="746" y="32" type="curve" smooth="yes"/>
    </contour>
  </outline>
</glyph>
<glyph name="uni0410" format="1">
  <advance width="675"/>
  <unicode hex="0410"/>
  <outline>
    <contour>
      <point x="16" y="0" type="line"/>
      <point x="54" y="0" type="line"/>
      <point x="159" y="245" type="line"/>
      <point x="515" y="245" type="line"/>
      <point x="620" y="0" type="line"/>
      <point x="657" y="0" type="line"/>
      <point x="352" y="710" type="line"/>
      <point x="322" y="710" type="line"/>
    </contour>
    <contour>
      <point x="169" y="275" type="line"/>
      <point x="337" y="666" type="line"/>
      <point x="504" y="275" type="line"/>
    </contour>
  </outline>
</glyph>
<glyph name="uni0411" format="1">
  <advance width="644"/>
  <unicode hex="0411"/>
  <outline>
    <contour>
      <point x="97" y="0" type="line"/>
      <point x="393" y="0" type="line" smooth="yes"/>
      <point x="534" y="0"/>
      <point x="608" y="89"/>
      <point x="608" y="201" type="curve" smooth="yes"/>
      <point x="608" y="316"/>
      <point x="535" y="394"/>
      <point x="391" y="394" type="curve" smooth="yes"/>
      <point x="131" y="394" type="line"/>
      <point x="131" y="678" type="line"/>
      <point x="556" y="678" type="line"/>
      <point x="556" y="710" type="line"/>
      <point x="97" y="710" type="line"/>
    </contour>
    <contour>
      <point x="131" y="32" type="line"/>
      <point x="131" y="362" type="line"/>
      <point x="391" y="362" type="line" smooth="yes"/>
      <point x="532" y="362"/>
      <point x="574" y="287"/>
      <point x="574" y="201" type="curve" smooth="yes"/>
      <point x="574" y="113"/>
      <point x="522" y="32"/>
      <point x="393" y="32" type="curve" smooth="yes"/>
    </contour>
  </outline>
</glyph>
<glyph name="uni0415" format="1">
  <advance width="615"/>
  <unicode hex="0415"/>
  <outline>
    <contour>
      <point x="131" y="32" type="line"/>
      <point x="131" y="347" type="line"/>
      <point x="503" y="347" type="line"/>
      <point x="503" y="379" type="line"/>
      <point x="131" y="379" type="line"/>
      <point x="131" y="678" type="line"/>
      <point x="556" y="678" type="line"/>
      <point x="556" y="710" type="line"/>
      <point x="96" y="710" type="line"/>
      <point x="96" y="0" type="line"/>
      <point x="565" y="0" type="line"/>
      <point x="565" y="32" type="line"/>
    </contour>
  </outline>
</glyph>
<glyph name="uni042A" format="1">
  <advance width="713"/>
  <unicode hex="042A"/>
  <outline>
    <contour>
      <point x="15" y="678" type="line"/>
      <point x="229" y="678" type="line"/>
      <point x="229" y="0" type="line"/>
      <point x="460" y="0" type="line" smooth="yes"/>
      <point x="603" y="0"/>
      <point x="681" y="94"/>
      <point x="681" y="212" type="curve" smooth="yes"/>
      <point x="681" y="338"/>
      <point x="606" y="424"/>
      <point x="458" y="424" type="curve" smooth="yes"/>
      <point x="264" y="424" type="line"/>
      <point x="264" y="710" type="line"/>
      <point x="15" y="710" type="line"/>
    </contour>
    <contour>
      <point x="264" y="392" type="line"/>
      <point x="458" y="392" type="line" smooth="yes"/>
      <point x="602" y="392"/>
      <point x="647" y="308"/>
      <point x="647" y="212" type="curve" smooth="yes"/>
      <point x="647" y="118"/>
      <point x="593" y="32"/>
      <point x="460" y="32" type="curve" smooth="yes"/>
      <point x="264" y="32" type="line"/>
    </contour>
  </outline>
</glyph>
<glyph name="uni042D" format="1">
  <advance width="698"/>
  <unicode hex="042D"/>
  <outline>
    <contour>
      <point x="319" y="-6" type="curve" smooth="yes"/>
      <point x="515" y="-6"/>
      <point x="651" y="180"/>
      <point x="651" y="360" type="curve" smooth="yes"/>
      <point x="651" y="530"/>
      <point x="530" y="714"/>
      <point x="314" y="714" type="curve" smooth="yes"/>
      <point x="185" y="714"/>
      <point x="95" y="649"/>
      <point x="52" y="559" type="curve"/>
      <point x="81" y="545" type="line"/>
      <point x="134" y="646"/>
      <point x="230" y="681"/>
      <point x="318" y="681" type="curve" smooth="yes"/>
      <point x="502" y="681"/>
      <point x="607" y="529"/>
      <point x="615" y="379" type="curve"/>
      <point x="238" y="379" type="line"/>
      <point x="238" y="347" type="line"/>
      <point x="616" y="347" type="line"/>
      <point x="612" y="176"/>
      <point x="482" y="27"/>
      <point x="315" y="27" type="curve" smooth="yes"/>
      <point x="224" y="27"/>
      <point x="119" y="71"/>
      <point x="66" y="171" type="curve"/>
      <point x="36" y="159" type="line"/>
      <point x="84" y="52"/>
      <point x="205" y="-6"/>
    </contour>
  </outline>
</glyph>
<glyph name="uni042E" format="1">
  <advance width="965"/>
  <unicode hex="042E"/>
  <outline>
    <contour>
      <point x="596" y="-5" type="curve" smooth="yes"/>
      <point x="777" y="-5"/>
      <point x="917" y="134"/>
      <point x="917" y="355" type="curve" smooth="yes"/>
      <point x="917" y="562"/>
      <point x="787" y="715"/>
      <point x="596" y="715" type="curve" smooth="yes"/>
      <point x="424" y="715"/>
      <point x="291" y="581"/>
      <point x="284" y="372" type="curve"/>
      <point x="131" y="372" type="line"/>
      <point x="131" y="710" type="line"/>
      <point x="97" y="710" type="line"/>
      <point x="97" y="0" type="line"/>
      <point x="131" y="0" type="line"/>
      <point x="131" y="339" type="line"/>
      <point x="284" y="339" type="line"/>
      <point x="290" y="135"/>
      <point x="415" y="-4"/>
    </contour>
    <contour>
      <point x="319" y="355" type="curve" smooth="yes"/>
      <point x="319" y="547"/>
      <point x="430" y="682"/>
      <point x="596" y="682" type="curve" smooth="yes"/>
      <point x="760" y="682"/>
      <point x="882" y="555"/>
      <point x="882" y="355" type="curve" smooth="yes"/>
      <point x="882" y="164"/>
      <point x="768" y="28"/>
      <point x="596" y="28" type="curve" smooth="yes"/>
      <point x="435" y="28"/>
      <point x="319" y="155"/>
    </contour>
  </outline>
</glyph>
<glyph name="uni044A" format="1">
  <advance width="563"/>
  <unicode hex="044A"/>
  <outline>
    <contour>
      <point x="227" y="520" type="line"/>
      <point x="20" y="520" type="line"/>
      <point x="20" y="489" type="line"/>
      <point x="193" y="489" type="line"/>
      <point x="193" y="0" type="line"/>
      <point x="364" y="0" type="line" smooth="yes"/>
      <point x="468" y="0"/>
      <point x="530" y="70"/>
      <point x="530" y="165" type="curve" smooth="yes"/>
      <point x="530" y="262"/>
      <point x="469" y="325"/>
      <point x="363" y="325" type="curve" smooth="yes"/>
      <point x="227" y="325" type="line"/>
    </contour>
    <contour>
      <point x="227" y="30" type="line"/>
      <point x="227" y="295" type="line"/>
      <point x="363" y="295" type="line" smooth="yes"/>
      <point x="462" y="295"/>
      <point x="496" y="236"/>
      <point x="496" y="165" type="curve" smooth="yes"/>
      <point x="496" y="93"/>
      <point x="456" y="30"/>
      <point x="364" y="30" type="curve" smooth="yes"/>
    </contour>
  </outline>
</glyph>
<glyph name="Ddotbelow" format="1">
  <advance width="712"/>
  <unicode hex="1E0C"/>
  <outline>
    <contour>
      <point x="354" y="-138" type="line"/>
      <point x="354" y="-55" type="line"/>
      <point x="322" y="-55" type="line"/>
      <point x="322" y="-138" type="line"/>
    </contour>
    <contour>
      <point x="328" y="0" type="line"/>
      <point x="533" y="0"/>
      <point x="663" y="141"/>
      <point x="663" y="356" type="curve" smooth="yes"/>
      <point x="663" y="552"/>
      <point x="552" y="710"/>
      <point x="328" y="710" type="curve" smooth="yes"/>
      <point x="96" y="710" type="line"/>
      <point x="96" y="0" type="line"/>
    </contour>
    <contour>
      <point x="628" y="356" type="curve" smooth="yes"/>
      <point x="628" y="172"/>
      <point x="525" y="32"/>
      <point x="328" y="32" type="curve" smooth="yes"/>
      <point x="131" y="32" type="line"/>
      <point x="131" y="678" type="line"/>
      <point x="328" y="678" type="line" smooth="yes"/>
      <point x="521" y="678"/>
      <point x="628" y="543"/>
    </contour>
  </outline>
</glyph>
<glyph name="Udotbelow" format="1">
  <advance width="756"/>
  <unicode hex="1EE4"/>
  <outline>
    <contour>
      <point x="378" y="28" type="curve" smooth="yes"/>
      <point x="178" y="28"/>
      <point x="120" y="190"/>
      <point x="120" y="354" type="curve" smooth="yes"/>
      <point x="120" y="710" type="line"/>
      <point x="85" y="710" type="line"/>
      <point x="85" y="354" type="line" smooth="yes"/>
      <point x="85" y="175"/>
      <point x="154" y="-5"/>
      <point x="379" y="-5" type="curve" smooth="yes"/>
      <point x="597" y="-5"/>
      <point x="671" y="165"/>
      <point x="671" y="354" type="curve" smooth="yes"/>
      <point x="671" y="710" type="line"/>
      <point x="637" y="710" type="line"/>
      <point x="637" y="354" type="line" smooth="yes"/>
      <point x="637" y="194"/>
      <point x="582" y="28"/>
    </contour>
    <contour>
      <point x="398" y="-138" type="line"/>
      <point x="398" y="-55" type="line"/>
      <point x="366" y="-55" type="line"/>
      <point x="366" y="-138" type="line"/>
    </contour>
  </outline>
</glyph>
<glyph name="Ygrave" format="1">
  <advance width="644"/>
  <unicode hex="1EF2"/>
  <outline>
    <contour>
      <point x="21" y="710" type="line"/>
      <point x="304" y="274" type="line"/>
      <point x="304" y="0" type="line"/>
      <point x="339" y="0" type="line"/>
      <point x="339" y="272" type="line"/>
      <point x="623" y="710" type="line"/>
      <point x="585" y="710" type="line"/>
      <point x="321" y="307" type="line"/>
      <point x="60" y="710" type="line"/>
    </contour>
    <contour>
      <point x="329" y="826" type="line"/>
      <point x="353" y="839" type="line"/>
      <point x="290" y="918" type="line"/>
      <point x="246" y="918" type="line"/>
    </contour>
  </outline>
</glyph>
<glyph name="Ytilde" format="1">
  <advance width="644"/>
  <unicode hex="1EF8"/>
  <outline>
    <contour>
      <point x="21" y="710" type="line"/>
      <point x="304" y="274" type="line"/>
      <point x="304" y="0" type="line"/>
      <point x="339" y="0" type="line"/>
      <point x="339" y="272" type="line"/>
      <point x="623" y="710" type="line"/>
      <point x="585" y="710" type="line"/>
      <point x="321" y="307" type="line"/>
      <point x="60" y="710" type="line"/>
    </contour>
    <contour>
      <point x="382" y="844" type="curve" smooth="yes"/>
      <point x="458" y="844"/>
      <point x="468" y="908"/>
      <point x="468" y="918" type="curve"/>
      <point x="442" y="918" type="line"/>
      <point x="442" y="914"/>
      <point x="438" y="870"/>
      <point x="383" y="870" type="curve" smooth="yes"/>
      <point x="333" y="870"/>
      <point x="311" y="909"/>
      <point x="258" y="909" type="curve" smooth="yes"/>
      <point x="189" y="909"/>
      <point x="179" y="843"/>
      <point x="179" y="834" type="curve"/>
      <point x="206" y="834" type="line"/>
      <point x="206" y="840"/>
      <point x="213" y="882"/>
      <point x="256" y="882" type="curve" smooth="yes"/>
      <point x="298" y="882"/>
      <point x="323" y="844"/>
    </contour>
  </outline>
</glyph>
<glyph name="guilsinglright" format="1">
  <advance width="349"/>
  <unicode hex="203A"/>
  <outline>
    <contour>
      <point x="308" y="270" type="line"/>
      <point x="67" y="442" type="line"/>
      <point x="67" y="409" type="line"/>
      <point x="278" y="259" type="line"/>
      <point x="67" y="109" type="line"/>
      <point x="67" y="76" type="line"/>
      <point x="308" y="247" type="line"/>
    </contour>
  </outline>
</glyph>
<glyph name="franc" format="1">
  <advance width="613"/>
  <unicode hex="20A3"/>
  <outline>
    <contour>
      <point x="156" y="0" type="line"/>
      <point x="156" y="146" type="line"/>
      <point x="314" y="146" type="line"/>
      <point x="314" y="176" type="line"/>
      <point x="156" y="176" type="line"/>
      <point x="156" y="347" type="line"/>
      <point x="518" y="347" type="line"/>
      <point x="518" y="378" type="line"/>
      <point x="156" y="378" type="line"/>
      <point x="156" y="678" type="line"/>
      <point x="581" y="678" type="line"/>
      <point x="581" y="710" type="line"/>
      <point x="122" y="710" type="line"/>
      <point x="122" y="176" type="line"/>
      <point x="28" y="176" type="line"/>
      <point x="28" y="146" type="line"/>
      <point x="122" y="146" type="line"/>
      <point x="122" y="0" type="line"/>
    </contour>
  </outline>
</glyph>
<glyph name="afii61352" format="1">
  <advance width="1110"/>
  <unicode hex="2116"/>
  <outline>
    <contour>
      <point x="645" y="0" type="line"/>
      <point x="679" y="0" type="line"/>
      <point x="679" y="709" type="line"/>
      <point x="644" y="709" type="line"/>
      <point x="644" y="55" type="line"/>
      <point x="122" y="710" type="line"/>
      <point x="96" y="710" type="line"/>
      <point x="96" y="0" type="line"/>
      <point x="131" y="0" type="line"/>
      <point x="131" y="644" type="line"/>
    </contour>
    <contour>
      <point x="913" y="355" type="curve" smooth="yes"/>
      <point x="1015" y="355"/>
      <point x="1091" y="438"/>
      <point x="1091" y="534" type="curve" smooth="yes"/>
      <point x="1091" y="632"/>
      <point x="1014" y="714"/>
      <point x="913" y="714" type="curve" smooth="yes"/>
      <point x="813" y="714"/>
      <point x="737" y="632"/>
      <point x="737" y="534" type="curve" smooth="yes"/>
      <point x="737" y="438"/>
      <point x="812" y="355"/>
    </contour>
    <contour>
      <point x="769" y="533" type="curve" smooth="yes"/>
      <point x="769" y="618"/>
      <point x="835" y="686"/>
      <point x="913" y="686" type="curve" smooth="yes"/>
      <point x="993" y="686"/>
      <point x="1059" y="619"/>
      <point x="1059" y="535" type="curve" smooth="yes"/>
      <point x="1059" y="451"/>
      <point x="993" y="382"/>
      <point x="913" y="382" type="curve" smooth="yes"/>
      <point x="834" y="382"/>
      <point x="769" y="449"/>
    </contour>
  </outline>
</glyph>
<glyph name="trademark" format="1">
  <advance width="671"/>
  <unicode hex="2122"/>
  <outline>
    <contour>
      <point x="278" y="712" type="line"/>
      <point x="60" y="712" type="line"/>
      <point x="60" y="684" type="line"/>
      <point x="155" y="684" type="line"/>
      <point x="155" y="430" type="line"/>
      <point x="183" y="430" type="line"/>
      <point x="183" y="684" type="line"/>
      <point x="278" y="684" type="line"/>
    </contour>
    <contour>
      <point x="457" y="507" type="line"/>
      <point x="358" y="710" type="line"/>
      <point x="324" y="710" type="line"/>
      <point x="324" y="430" type="line"/>
      <point x="352" y="430" type="line"/>
      <point x="352" y="663" type="line"/>
      <point x="446" y="472" type="line"/>
      <point x="470" y="472" type="line"/>
      <point x="564" y="663" type="line"/>
      <point x="564" y="430" type="line"/>
      <point x="592" y="430" type="line"/>
      <point x="592" y="710" type="line"/>
      <point x="557" y="710" type="line"/>
    </contour>
  </outline>
</glyph>
<glyph name="oneeighth" format="1">
  <advance width="808"/>
  <unicode hex="215B"/>
  <outline>
    <contour>
      <point x="116" y="-2" type="line"/>
      <point x="392" y="346" type="line"/>
      <point x="673" y="695" type="line"/>
      <point x="651" y="712" type="line"/>
      <point x="374" y="363" type="line"/>
      <point x="95" y="16" type="line"/>
    </contour>
    <contour>
      <point x="171" y="364" type="line"/>
      <point x="171" y="731" type="line"/>
      <point x="143" y="731" type="line"/>
      <point x="142" y="728"/>
      <point x="90" y="677"/>
      <point x="47" y="677" type="curve"/>
      <point x="47" y="650" type="line"/>
      <point x="80" y="650"/>
      <point x="129" y="681"/>
      <point x="143" y="698" type="curve"/>
      <point x="143" y="364" type="line"/>
      <point x="61" y="364" type="line"/>
      <point x="61" y="337" type="line"/>
      <point x="248" y="337" type="line"/>
      <point x="248" y="364" type="line"/>
    </contour>
    <contour>
      <point x="773" y="105" type="curve" smooth="yes"/>
      <point x="773" y="156"/>
      <point x="731" y="193"/>
      <point x="676" y="208" type="curve"/>
      <point x="720" y="222"/>
      <point x="757" y="251"/>
      <point x="757" y="292" type="curve" smooth="yes"/>
      <point x="757" y="353"/>
      <point x="688" y="388"/>
      <point x="621" y="388" type="curve" smooth="yes"/>
      <point x="555" y="388"/>
      <point x="485" y="353"/>
      <point x="485" y="292" type="curve" smooth="yes"/>
      <point x="485" y="251"/>
      <point x="522" y="222"/>
      <point x="565" y="208" type="curve"/>
      <point x="518" y="195"/>
      <point x="469" y="159"/>
      <point x="469" y="107" type="curve" smooth="yes"/>
      <point x="469" y="48"/>
      <point x="529" y="-4"/>
      <point x="619" y="-4" type="curve" smooth="yes"/>
      <point x="702" y="-4"/>
      <point x="773" y="39"/>
    </contour>
    <contour>
      <point x="746" y="108" type="curve" smooth="yes"/>
      <point x="746" y="55"/>
      <point x="682" y="21"/>
      <point x="621" y="21" type="curve" smooth="yes"/>
      <point x="564" y="21"/>
      <point x="496" y="53"/>
      <point x="496" y="107" type="curve" smooth="yes"/>
      <point x="496" y="161"/>
      <point x="560" y="196"/>
      <point x="620" y="196" type="curve" smooth="yes"/>
      <point x="678" y="196"/>
      <point x="746" y="164"/>
    </contour>
    <contour>
      <point x="512" y="290" type="curve" smooth="yes"/>
      <point x="512" y="335"/>
      <point x="564" y="363"/>
      <point x="620" y="363" type="curve" smooth="yes"/>
      <point x="676" y="363"/>
      <point x="730" y="336"/>
      <point x="730" y="291" type="curve" smooth="yes"/>
      <point x="730" y="246"/>
      <point x="671" y="219"/>
      <point x="620" y="219" type="curve" smooth="yes"/>
      <point x="571" y="219"/>
      <point x="512" y="245"/>
    </contour>
  </outline>
</glyph>
<glyph name="seveneighths" format="1">
  <advance width="807"/>
  <unicode hex="215E"/>
  <outline>
    <contour>
      <point x="75" y="-2" type="line"/>
      <point x="351" y="346" type="line"/>
      <point x="632" y="695" type="line"/>
      <point x="610" y="712" type="line"/>
      <point x="333" y="363" type="line"/>
      <point x="54" y="16" type="line"/>
    </contour>
    <contour>
      <point x="773" y="105" type="curve" smooth="yes"/>
      <point x="773" y="156"/>
      <point x="731" y="193"/>
      <point x="676" y="208" type="curve"/>
      <point x="720" y="222"/>
      <point x="757" y="251"/>
      <point x="757" y="292" type="curve" smooth="yes"/>
      <point x="757" y="353"/>
      <point x="688" y="388"/>
      <point x="621" y="388" type="curve" smooth="yes"/>
      <point x="555" y="388"/>
      <point x="485" y="353"/>
      <point x="485" y="292" type="curve" smooth="yes"/>
      <point x="485" y="251"/>
      <point x="522" y="222"/>
      <point x="565" y="208" type="curve"/>
      <point x="518" y="195"/>
      <point x="469" y="159"/>
      <point x="469" y="107" type="curve" smooth="yes"/>
      <point x="469" y="48"/>
      <point x="529" y="-4"/>
      <point x="619" y="-4" type="curve" smooth="yes"/>
      <point x="702" y="-4"/>
      <point x="773" y="39"/>
    </contour>
    <contour>
      <point x="746" y="108" type="curve" smooth="yes"/>
      <point x="746" y="55"/>
      <point x="682" y="21"/>
      <point x="621" y="21" type="curve" smooth="yes"/>
      <point x="564" y="21"/>
      <point x="496" y="53"/>
      <point x="496" y="107" type="curve" smooth="yes"/>
      <point x="496" y="161"/>
      <point x="560" y="196"/>
      <point x="620" y="196" type="curve" smooth="yes"/>
      <point x="678" y="196"/>
      <point x="746" y="164"/>
    </contour>
    <contour>
      <point x="512" y="290" type="curve" smooth="yes"/>
      <point x="512" y="335"/>
      <point x="564" y="363"/>
      <point x="620" y="363" type="curve" smooth="yes"/>
      <point x="676" y="363"/>
      <point x="730" y="336"/>
      <point x="730" y="291" type="curve" smooth="yes"/>
      <point x="730" y="246"/>
      <point x="671" y="219"/>
      <point x="620" y="219" type="curve" smooth="yes"/>
      <point x="571" y="219"/>
      <point x="512" y="245"/>
    </contour>
    <contour>
      <point x="85" y="342" type="line"/>
      <point x="117" y="342" type="line"/>
      <point x="344" y="730" type="line"/>
      <point x="45" y="730" type="line"/>
      <point x="45" y="704" type="line"/>
      <point x="301" y="704" type="line"/>
    </contour>
  </outline>
</glyph>
<glyph name="f_f_l" format="1">
  <advance width="762"/>
  <unicode hex="FB04"/>
  <outline>
    <contour>
      <point x="691" y="-5" type="curve" smooth="yes"/>
      <point x="722" y="-5"/>
      <point x="763" y="4"/>
      <point x="764" y="6" type="curve"/>
      <point x="754" y="36" type="line"/>
      <point x="752" y="36"/>
      <point x="718" y="26"/>
      <point x="695" y="26" type="curve" smooth="yes"/>
      <point x="653" y="26"/>
      <point x="634" y="61"/>
      <point x="634" y="89" type="curve" smooth="yes"/>
      <point x="634" y="605" type="line" smooth="yes"/>
      <point x="634" y="681"/>
      <point x="579" y="740"/>
      <point x="482" y="740" type="curve" smooth="yes"/>
      <point x="420" y="740"/>
      <point x="379" y="715"/>
      <point x="353" y="675" type="curve"/>
      <point x="336" y="686"/>
      <point x="307" y="700"/>
      <point x="260" y="700" type="curve" smooth="yes"/>
      <point x="155" y="700"/>
      <point x="102" y="624"/>
      <point x="102" y="528" type="curve" smooth="yes"/>
      <point x="102" y="520" type="line"/>
      <point x="28" y="520" type="line"/>
      <point x="28" y="490" type="line"/>
      <point x="102" y="490" type="line"/>
      <point x="102" y="0" type="line"/>
      <point x="136" y="0" type="line"/>
      <point x="136" y="490" type="line"/>
      <point x="321" y="490" type="line"/>
      <point x="321" y="0" type="line"/>
      <point x="355" y="0" type="line"/>
      <point x="355" y="490" type="line"/>
      <point x="475" y="490" type="line"/>
      <point x="475" y="520" type="line"/>
      <point x="355" y="520" type="line"/>
      <point x="355" y="537" type="line" smooth="yes"/>
      <point x="355" y="621"/>
      <point x="388" y="708"/>
      <point x="486" y="708" type="curve" smooth="yes"/>
      <point x="563" y="708"/>
      <point x="600" y="656"/>
      <point x="600" y="601" type="curve" smooth="yes"/>
      <point x="600" y="80" type="line" smooth="yes"/>
      <point x="600" y="34"/>
      <point x="630" y="-5"/>
    </contour>
    <contour>
      <point x="136" y="520" type="line"/>
      <point x="136" y="528" type="line" smooth="yes"/>
      <point x="136" y="596"/>
      <point x="171" y="669"/>
      <point x="264" y="669" type="curve" smooth="yes"/>
      <point x="287" y="669"/>
      <point x="317" y="665"/>
      <point x="340" y="647" type="curve"/>
      <point x="326" y="617"/>
      <point x="321" y="576"/>
      <point x="321" y="520" type="curve"/>
    </contour>
  </outline>
</glyph>
<glyph name="B.sc" format="1">
  <advance width="570"/>
  <outline>
    <contour>
      <point x="518" y="140" type="curve" smooth="yes"/>
      <point x="518" y="204"/>
      <point x="476" y="259"/>
      <point x="410" y="278" type="curve"/>
      <point x="461" y="299"/>
      <point x="493" y="349"/>
      <point x="493" y="404" type="curve" smooth="yes"/>
      <point x="493" y="472"/>
      <point x="443" y="542"/>
      <point x="360" y="542" type="curve" smooth="yes"/>
      <point x="92" y="542" type="line"/>
      <point x="92" y="0" type="line"/>
      <point x="365" y="0" type="line" smooth="yes"/>
      <point x="449" y="0"/>
      <point x="518" y="62"/>
    </contour>
    <contour>
      <point x="486" y="144" type="curve" smooth="yes"/>
      <point x="486" y="86"/>
      <point x="432" y="29"/>
      <point x="365" y="29" type="curve" smooth="yes"/>
      <point x="124" y="29" type="line"/>
      <point x="124" y="260" type="line"/>
      <point x="371" y="260" type="line" smooth="yes"/>
      <point x="436" y="260"/>
      <point x="486" y="204"/>
    </contour>
    <contour>
      <point x="353" y="512" type="line"/>
      <point x="417" y="512"/>
      <point x="461" y="460"/>
      <point x="461" y="400" type="curve" smooth="yes"/>
      <point x="461" y="343"/>
      <point x="414" y="288"/>
      <point x="348" y="288" type="curve" smooth="yes"/>
      <point x="124" y="288" type="line"/>
      <point x="124" y="512" type="line"/>
    </contour>
  </outline>
</glyph>
<glyph name="G.alt" format="1">
  <advance width="735"/>
  <outline>
    <contour>
      <point x="378" y="-5" type="curve" smooth="yes"/>
      <point x="554" y="-5"/>
      <point x="685" y="143"/>
      <point x="705" y="308" type="curve" smooth="yes"/>
      <point x="706" y="316"/>
      <point x="707" y="329"/>
      <point x="707" y="335" type="curve"/>
      <point x="435" y="335" type="line"/>
      <point x="435" y="302" type="line"/>
      <point x="670" y="302" type="line"/>
      <point x="650" y="161"/>
      <point x="537" y="28"/>
      <point x="378" y="28" type="curve" smooth="yes"/>
      <point x="204" y="28"/>
      <point x="81" y="187"/>
      <point x="81" y="353" type="curve" smooth="yes"/>
      <point x="81" y="517"/>
      <point x="200" y="682"/>
      <point x="377" y="682" type="curve" smooth="yes"/>
      <point x="485" y="682"/>
      <point x="573" y="619"/>
      <point x="623" y="536" type="curve"/>
      <point x="649" y="559" type="line"/>
      <point x="592" y="650"/>
      <point x="496" y="715"/>
      <point x="379" y="715" type="curve" smooth="yes"/>
      <point x="189" y="715"/>
      <point x="46" y="544"/>
      <point x="46" y="356" type="curve" smooth="yes"/>
      <point x="46" y="172"/>
      <point x="185" y="-5"/>
    </contour>
  </outline>
</glyph>
<glyph name="J.sc" format="1">
  <advance width="417"/>
  <outline>
    <contour>
      <point x="372" y="707" type="move" name="top"/>
    </contour>
    <contour>
      <point x="25" y="25" type="line"/>
      <point x="60" y="3"/>
      <point x="102" y="-8"/>
      <point x="152" y="-8" type="curve" smooth="yes"/>
      <point x="314" y="-8"/>
      <point x="333" y="101"/>
      <point x="333" y="266" type="curve" smooth="yes"/>
      <point x="333" y="541" type="line"/>
      <point x="301" y="541" type="line"/>
      <point x="301" y="266" type="line" smooth="yes"/>
      <point x="301" y="112"/>
      <point x="285" y="22"/>
      <point x="152" y="22" type="curve" smooth="yes"/>
      <point x="106" y="22"/>
      <point x="66" y="34"/>
      <point x="37" y="51" type="curve"/>
    </contour>
  </outline>
</glyph>
<glyph name="M.sc" format="1">
  <advance width="754"/>
  <outline>
    <contour>
      <point x="663" y="0" type="line"/>
      <point x="663" y="542" type="line"/>
      <point x="632" y="542" type="line"/>
      <point x="378" y="146" type="line"/>
      <point x="123" y="542" type="line"/>
      <point x="92" y="542" type="line"/>
      <point x="92" y="0" type="line"/>
      <point x="124" y="0" type="line"/>
      <point x="124" y="480" type="line"/>
      <point x="367" y="104" type="line"/>
      <point x="388" y="104" type="line"/>
      <point x="630" y="480" type="line"/>
      <point x="630" y="0" type="line"/>
    </contour>
  </outline>
</glyph>
<glyph name="d.alt" format="1">
  <advance width="607"/>
  <outline>
    <contour>
      <point x="526" y="0" type="line"/>
      <point x="526" y="730" type="line"/>
      <point x="492" y="730" type="line"/>
      <point x="492" y="402" type="line"/>
      <point x="445" y="470"/>
      <point x="377" y="528"/>
      <point x="284" y="528" type="curve" smooth="yes"/>
      <point x="146" y="528"/>
      <point x="44" y="402"/>
      <point x="44" y="258" type="curve" smooth="yes"/>
      <point x="44" y="123"/>
      <point x="149" y="-10"/>
      <point x="294" y="-10" type="curve" smooth="yes"/>
      <point x="372" y="-10"/>
      <point x="449" y="37"/>
      <point x="492" y="105" type="curve"/>
      <point x="492" y="0" type="line"/>
    </contour>
    <contour>
      <point x="492" y="172" type="line"/>
      <point x="488" y="91"/>
      <point x="376" y="22"/>
      <point x="298" y="22" type="curve" smooth="yes"/>
      <point x="176" y="22"/>
      <point x="79" y="133"/>
      <point x="79" y="258" type="curve" smooth="yes"/>
      <point x="79" y="377"/>
      <point x="161" y="496"/>
      <point x="289" y="496" type="curve" smooth="yes"/>
      <point x="370" y="496"/>
      <point x="465" y="431"/>
      <point x="492" y="351" type="curve"/>
    </contour>
  </outline>
</glyph>
<glyph name="five.denominator" format="1">
  <advance width="365"/>
  <outline>
    <contour>
      <point x="183" y="245" type="curve" smooth="yes"/>
      <point x="142" y="245"/>
      <point x="105" y="233"/>
      <point x="79" y="209" type="curve"/>
      <point x="115" y="361" type="line"/>
      <point x="308" y="361" type="line"/>
      <point x="308" y="388" type="line"/>
      <point x="94" y="388" type="line"/>
      <point x="92" y="373"/>
      <point x="52" y="209"/>
      <point x="44" y="172" type="curve"/>
      <point x="71" y="172" type="line"/>
      <point x="94" y="202"/>
      <point x="135" y="221"/>
      <point x="179" y="221" type="curve" smooth="yes"/>
      <point x="240" y="221"/>
      <point x="302" y="186"/>
      <point x="302" y="122" type="curve" smooth="yes"/>
      <point x="302" y="63"/>
      <point x="248" y="20"/>
      <point x="178" y="20" type="curve" smooth="yes"/>
      <point x="125" y="20"/>
      <point x="79" y="45"/>
      <point x="56" y="83" type="curve"/>
      <point x="35" y="71" type="line"/>
      <point x="60" y="26"/>
      <point x="114" y="-5"/>
      <point x="177" y="-5" type="curve" smooth="yes"/>
      <point x="260" y="-5"/>
      <point x="329" y="46"/>
      <point x="329" y="122" type="curve" smooth="yes"/>
      <point x="329" y="195"/>
      <point x="264" y="245"/>
    </contour>
  </outline>
</glyph>
<glyph name="j.alt" format="1">
  <advance width="197"/>
  <outline>
    <contour>
      <point x="81" y="-213" type="line"/>
      <point x="115" y="-213" type="line"/>
      <point x="115" y="517" type="line"/>
      <point x="81" y="517" type="line"/>
    </contour>
    <contour>
      <point x="81" y="646" type="line"/>
      <point x="115" y="646" type="line"/>
      <point x="115" y="718" type="line"/>
      <point x="81" y="718" type="line"/>
    </contour>
  </outline>
</glyph>
